# xmcd CD database file
#
# Track frame offsets:
#	150
#	13355
#	38912
#	64301
#	72978
#	90766
#	101572
#	114725
#
# Disc length: 1886 seconds
#
# Revision: 0
# Processed by: cddbd v1.5.2PL0 Copyright (c) Steve Scherf et al.
# Submitted via: CDex 1.70beta2
#
DISCID=69075c08
DTITLE=Mindless Self Indulgence - Shut Me Up: The Remixes +3
DYEAR=2006
DGENRE=Industrial and Punk
TTITLE0=Shut Me Up - Ulrich Wild (Groandome Metal Mix)
TTITLE1=Shut Me Up - VNV Nation (1200XL Remix)
TTITLE2=Shut Me Up - Tommie Sunshine (TSMV Still Filthy Remix)
TTITLE3=Shut Me Up - Original Crappy Demo
TTITLE4=Big Poppa
TTITLE5=Adios Amigos
TTITLE6=Straight To Video - Suicide City (More and Faster Remix)
TTITLE7=Straight To Video - Tommie Sunshine (TSMV Extended Electro Remix)
EXTD=YEAR: 2006
EXTT0=
EXTT1=
EXTT2=
EXTT3=
EXTT4=
EXTT5=
EXTT6=
EXTT7=
PLAYORDER=
